<?xml version="1.0" encoding="UTF-8"?>
<svg id="Capa_2" data-name="Capa 2" xmlns="http://www.w3.org/2000/svg" viewBox="0 0 280.57 280.57">
  <defs>
    <style>
      .cls-1 {
        fill: #fff;
      }

      .cls-1, .cls-2 {
        fill-rule: evenodd;
      }

      .cls-2 {
        fill: #f40001;
      }
    </style>
  </defs>
  <g id="Layer_1" data-name="Layer 1">
    <path class="cls-2" d="M140.28,280.57c77.27,0,140.28-63.02,140.28-140.28S217.55,0,140.28,0,0,63.02,0,140.28s63.02,140.28,140.28,140.28Z"/>
    <g>
      <path class="cls-1" d="M83.64,123.78c-3.93-2.58-11.84,2.35-18.17,10.82-5.79,7.59-8.29,16.41-5.57,20.49,4.05,4.8,11.56-2.18,14.76-5.92l.41-.44c2.17-2.33,3.85-5.14,5.48-7.84,0,0,1.49-2.47,1.56-2.58.92-.17,2.03-.44,3.29-.8-.02.06-4.79,8.08-4.31,12.07.15,1.21.04,5.66,4.37,7,5.78.97,10.39-3.51,14.46-7.5,0,0,.69-.66,1.09-1.04-.1.4-.23.93-.23.93-1.69,5.88.59,7.12,2.02,7.57,4.31,1.25,9.46-5.01,9.48-5.01-.13,1.97-.52,3.61,1.56,4.91,1.96.7,3.95-.34,5.46-1.35,5.44-3.83,9.82-9.87,13.36-14.99h-2.26s-5.57,8.01-9.17,9.75c0,0-.66.32-1.04.06-.47-.4-.28-1.29,0-1.88.02-.04,13.9-24.18,13.9-24.18h-6.55s-.72,1.21-.77,1.29c-.04-.04-.15-.21-.22-.3-4.06-5.62-13.26,3.04-20.18,13.06-2.67,3.85-6.06,8.2-9.58,11.33,0,0-5.21,4.78-7.44,1.35-.81-1.44-.56-3.55-.1-4.93,2.59-7.38,7.06-14.08,12.15-18.12,1.44-1.12,3-1.44,3.77-.97.74.44.86,1.52.39,2.26-1.18-.04-2.13.32-2.9,1.12-1.52,1.59-2.05,3.13-1.56,4.57,2.35,3.34,7.03-3.26,6.8-7.29-.08-1.44-.85-2.81-2-3.47-1.71-1.02-4.32-.76-6.01.06-2.26.85-5.84,3.83-7.93,6.15-2.63,2.9-7.14,6.13-8.56,5.77.46-1.23,4.28-9.03.26-11.95h0ZM115.24,135.32c1.28-1.76,4.99-6.49,5.89-7.29,3.04-2.68,4.26-1.5,4.36-.66-2.84,5.09-6.19,10.91-9.34,16.15,0-.02-.99,1.5-.99,1.5-1.39,2.13-2.79,3.95-5.08,5.22-.32.09-.86.13-1.22-.13-.43-.28-.6-.76-.55-1.25.14-1.63,1.8-6.62,6.92-13.53h0ZM79.58,138.38s-.06.17-.09.23c0,0-2.86,4.65-2.86,4.65-1.72,2.3-3.87,5.18-6.55,6.57-.8.26-1.9.44-2.46-.27-1.19-1.42-.58-3.4-.08-4.99l.18-.57c1.43-3.87,3.69-7.29,5.89-10.46.03-.02.09-.04.11-.04,0,.02.01.02.02.06,1.38,2.66,3.98,3.89,5.91,4.46.01,0,.02.02.02.06,0,.06-.03.13-.11.3h0ZM82.28,132.89s-1.27,2.92-1.27,2.92c-.18.15-.47.08-.8,0l-.56-.1c-1.77-.55-3.11-1.73-3.52-3.13-.57-2.73,1.77-4.88,2.79-5.65.99-.68,2.52-1.04,3.41-.34.55.64.76,1.48.76,2.39,0,1.23-.38,2.62-.81,3.91Z"/>
      <path class="cls-1" d="M165.14,141.7c-.63-1.37-2.13-2.24-3.73-2.14-5.19.47-10.27,4.75-12.94,10.87-1.4,3.15-2.16,5.75-2.66,9.89,1.62-1.86,4.91-4.92,8.64-6.59,0,0,.51-3.97,3.1-7.5.98-1.46,2.95-3.81,5.15-3.19,1.93.65,1.25,5.98-1.31,11.14-1.89,3.8-4.79,7.59-7.73,10.21-2.59,2.2-6.43,4.86-9.79,2.81-2.11-1.25-3.19-3.87-2.96-7.25,1.01-9.58,5.37-17.74,11.61-27.04,6.44-8.63,13.53-17.5,23.09-22.22,1.95-.99,3.76-1.21,5.32-.61,0,0-8.97,4.93-13.25,14.06-1.09,2.32-2.6,5.45-1.08,8.22.8,1.44,2.21,1.56,3.35,1.48,5.24-1.21,8.63-6.11,11.4-10.59,1.61-3.4,3.03-6.77,3.03-10.53,0-.46-.02-1.06-.06-1.52,2.5-1.33,7.64,1.02,7.64,1.02,4.01,1.33,12.56,7.88,15.44,9.13,1.41-1.63,3.72-4.1,5.02-5.33l-1.88-1.16c-3.01-1.84-6.2-3.59-9.34-5.31-7.13-3.89-12.93-2.52-15.88-1.46-1.16.42-2.22.78-2.22.78-2.19-2.39-5.78-2.16-8.43-1.52-9.52,2.73-18.36,9.39-27.83,20.95-6.97,9.05-11.29,16.87-13.59,24.59-1.78,5.2-2.32,12.85,2.02,17.38,3.68,3.85,8.57,3.02,12.02,1.63,7.48-3.68,14.19-11.61,17.54-20.74.81-2.71,1.7-6.55.31-9.47h0ZM182.33,113.1c-.99,11.35-9.81,18.01-11.99,18.54-1.32.27-3.58-.32-1.56-5.09,2.97-6.41,8.03-11.86,13.47-14.65.13.47.13.78.09,1.2Z"/>
      <path class="cls-1" d="M234.65,114.54c-4.75,2.69-9.66,4.44-15.62,3.83-1.65,1.86-3.26,3.78-4.74,5.75,8.36,2.13,17.22-2.6,22.16-7.1,5.23-4.54,7.91-10.25,7.91-10.25,0,0-3.92,4.48-9.71,7.76Z"/>
      <polygon class="cls-1" points="144.98 123.88 138.76 123.88 135.25 129.82 141.47 129.82 144.98 123.88"/>
      <path class="cls-1" d="M63.1,170.32c-5.93.74-12.58-.84-15.44-7.06-2.83-6.17-1.36-12.68,1.08-18.49,4.64-11.03,11.54-21.44,20.39-29.3,2.86-2.54,5.3-4.8,9.14-5.41,2.9-.46,4.9,2.6,3.22,2.81-2.46.3-4.01,1.45-4.98,3.44-.64,1.3-.85,3.63,1,4.08,1.9.46,3.11-1.06,4.17-2.47,2.25-2.99,2.44-8.83-1.28-10-9.32-2.94-22.74,8.02-30.88,17.83-7.8,9.41-16.42,23.15-12.23,37.06,3.16,10.49,15.08,11.9,24.27,10.35,12.73-2.15,22.14-7.97,36.09-5.79,4.04.63,8.47,2.06,10.52,6.42,2.91-3.78,8.74-8.81,24.47-1.26-5.89-6.53-14.33-9.17-22.55-10.34-16.44-2.33-31.01,6.14-47,8.13Z"/>
      <path class="cls-1" d="M222.16,125.31c-1.64,2.38-7.62,9.2-9.13,10.88-3,2.68-5.92,5.69-9.23,8.07-1.44,1.04-2.86,1.91-4.24,2.94,5.99-13.28,13.96-25.6,25.06-35.59,1.41-1.27,3.86-2.89,4.71-1.81,1,1.27.32,3.47-.87,5.14-.41.57-1.03,1.25-1.49,1.81l2.29-.53c.3-.4.65-.79.93-1.2,1.86-2.69,1.78-6.98.03-7.48-3-.95-9.48,2.67-13.43,5.79-12.24,9.68-20.37,24.26-26.64,37.24-.76.67-2.48.69-3.67.59,1.91-3.7,3.57-9.32-.45-11.82-2.51-1.56-6.15.35-8.17,1.6-5.75,3.57-11.66,10.94-14.56,20.23-3.34,10.68,6.55,11.22,13.07,5.53,4.43-3.87,7.14-9.93,9.32-13.71.84.15,3.07.15,3.96-.25-1.71,5.08-5.65,13.05-.14,16.22,5.65,3.25,10.03-3.96,13.61-7.89l.35-.64c-.99,3.37-2.31,7.99,1.66,9.28,4.36,1.41,7.98-2.77,11.02-5.71-.96,2.68-.51,6.66,2.71,6.02,5.9-1.18,13.16-8.96,17.2-15.34h-1.59c-2.52,3.42-6.79,8.43-9.41,8.43-1.49.1-1.02-1.61-.79-1.98l12.88-22.31h-6.93l-1.09,1.88c-4.01-4.55-10.22-.79-13.65,2.41-4.04,3.77-7.43,9.08-10.67,13.41-1.87,2.5-4.17,5.9-6.91,7.18-1.08.5-2.87.52-2.98-1.04-.29-4.35,1.69-8.69,3.05-12.29,10.15-6.78,19.71-15.07,26-25.47l-1.82.41h0ZM219.13,157.67c-1.29,2.18-4.76,6.84-7.23,5.85-2.48-.99.05-5.65.84-7.24.79-1.59,6.56-11.22,10.55-13.88,2.38-1.59,2.97-1.29,3.67-.89.69.4.99,1.14.59,1.83l-8.42,14.33h0ZM184.79,150.82c-1.88.1-3.96-1.39-5-2.59-1.37-1.59-.69-4.02.98-5.51,1.5-1.34,3.97-1.84,4.91-.51,2.08,2.49-.2,8.02-.89,8.61h0ZM175.51,163.33c-1.14.68-4.01,1.44-5.05.35-2.13-2.08,2.37-9.64,4.05-12.42.62-1.02,1.71-2.65,2.48-3.67.99,1.88,3.42,4.46,6.93,4.91-1.85,3.38-4.45,8.47-8.41,10.83Z"/>
    </g>
  </g>
</svg>